G04 (Genere par PCBnew (20080825c)) le 30/3/2010-05:44:37*
G01*
G70*
G90*
%MOIN*%
G04 Gerber Fmt 3.4, Leading zero omitted, Abs format*
%FSLAX34Y34*%
G04 APERTURE LIST*
%ADD10C,0.008000*%
%ADD11R,0.070000X0.070000*%
%ADD12C,0.070000*%
%ADD13R,0.060000X0.060000*%
%ADD14C,0.060000*%
%ADD15R,0.090000X0.090000*%
%ADD16C,0.090000*%
%ADD17R,0.055000X0.055000*%
%ADD18C,0.055000*%
%ADD19C,0.160000*%
%ADD20C,0.045000*%
%ADD21C,0.060000*%
%ADD22C,0.025000*%
%ADD23C,0.010000*%
G04 APERTURE END LIST*
G54D10*
X10000Y-24800D02*
X10000Y-10000D01*
X34600Y-24800D02*
X10000Y-24800D01*
X34600Y-10000D02*
X34600Y-24800D01*
X10000Y-10000D02*
X34600Y-10000D01*
G54D11*
X17300Y-22300D03*
G54D12*
X15300Y-22300D03*
G54D11*
X29300Y-22300D03*
G54D12*
X27300Y-22300D03*
G54D13*
X13300Y-20900D03*
G54D14*
X11300Y-20400D03*
X13300Y-19900D03*
X11300Y-19400D03*
X13300Y-18900D03*
X11300Y-18400D03*
X13300Y-17900D03*
X11300Y-17400D03*
X13300Y-16900D03*
X11300Y-16400D03*
X13300Y-15900D03*
X11300Y-15400D03*
X13300Y-14900D03*
X11300Y-14400D03*
X13300Y-13900D03*
G54D13*
X31300Y-13900D03*
G54D14*
X33300Y-14400D03*
X31300Y-14900D03*
X33300Y-15400D03*
X31300Y-15900D03*
X33300Y-16400D03*
X31300Y-16900D03*
X33300Y-17400D03*
X31300Y-17900D03*
X33300Y-18400D03*
X31300Y-18900D03*
X33300Y-19400D03*
X31300Y-19900D03*
X33300Y-20400D03*
X31300Y-20900D03*
G54D15*
X15300Y-11500D03*
G54D16*
X17300Y-11500D03*
G54D15*
X19300Y-11500D03*
G54D16*
X21300Y-11500D03*
G54D15*
X23300Y-11500D03*
G54D16*
X25300Y-11500D03*
G54D15*
X27300Y-11500D03*
G54D16*
X29300Y-11500D03*
G54D15*
X24300Y-23300D03*
G54D16*
X22300Y-23300D03*
X20300Y-23300D03*
G54D17*
X22300Y-20100D03*
G54D18*
X22300Y-19100D03*
G54D13*
X19800Y-19400D03*
G54D14*
X18800Y-19400D03*
X17800Y-19400D03*
X16800Y-19400D03*
G54D13*
X27800Y-19400D03*
G54D14*
X26800Y-19400D03*
X25800Y-19400D03*
X24800Y-19400D03*
G54D19*
X11200Y-11200D03*
X33400Y-11200D03*
X33400Y-23600D03*
X11200Y-23600D03*
G54D20*
X24300Y-16500D03*
X20300Y-16500D03*
X28300Y-16500D03*
X16300Y-16500D03*
X22300Y-16500D03*
X15300Y-21400D03*
X15300Y-18800D03*
X14300Y-18200D03*
X24500Y-20200D03*
X20100Y-20200D03*
X30300Y-18200D03*
X29300Y-18800D03*
X29300Y-21400D03*
G54D21*
X29300Y-22300D02*
X32700Y-22300D01*
X32700Y-22300D02*
X34100Y-20900D01*
X34100Y-15700D02*
X34100Y-20900D01*
X33800Y-15400D02*
X34100Y-15700D01*
X33800Y-15400D02*
X33300Y-15400D01*
X24300Y-23300D02*
X28300Y-23300D01*
X28300Y-23300D02*
X29300Y-22300D01*
X23800Y-22800D02*
X24300Y-23300D01*
X24300Y-16500D02*
X23800Y-17000D01*
X23800Y-17000D02*
X23800Y-18700D01*
X23800Y-18700D02*
X23800Y-22800D01*
G54D22*
X28300Y-16500D02*
X24300Y-16500D01*
X24300Y-16500D02*
X23500Y-15700D01*
X23500Y-15700D02*
X21100Y-15700D01*
X21100Y-15700D02*
X20300Y-16500D01*
X20300Y-16500D02*
X16300Y-16500D01*
G54D21*
X15300Y-22300D02*
X11900Y-22300D01*
X10800Y-17400D02*
X11300Y-17400D01*
X10500Y-17700D02*
X10800Y-17400D01*
X10500Y-20900D02*
X10500Y-19900D01*
X10500Y-19900D02*
X10500Y-17700D01*
X11900Y-22300D02*
X10500Y-20900D01*
X20300Y-23300D02*
X16300Y-23300D01*
X16300Y-23300D02*
X15300Y-22300D01*
X20800Y-22800D02*
X20300Y-23300D01*
G54D23*
X13300Y-20900D02*
X12800Y-20900D01*
X11800Y-19900D02*
X10500Y-19900D01*
X11800Y-19900D02*
X12800Y-20900D01*
G54D21*
X22300Y-16500D02*
X20800Y-18000D01*
X20800Y-18000D02*
X20800Y-22800D01*
G54D22*
X19300Y-11500D02*
X19300Y-12400D01*
X12500Y-21600D02*
X11300Y-20400D01*
X15100Y-21600D02*
X12500Y-21600D01*
X15300Y-21400D02*
X15100Y-21600D01*
X15300Y-16400D02*
X15300Y-18800D01*
X19300Y-12400D02*
X15300Y-16400D01*
X21300Y-11500D02*
X20500Y-10700D01*
X20500Y-10700D02*
X18600Y-10700D01*
X18600Y-10700D02*
X18300Y-11000D01*
X18300Y-11000D02*
X18300Y-12100D01*
X18300Y-12100D02*
X14300Y-16100D01*
X14300Y-16100D02*
X14300Y-18300D01*
X14300Y-18300D02*
X14300Y-18200D01*
G54D23*
X19800Y-19400D02*
X18800Y-20400D01*
X13600Y-18900D02*
X13300Y-18900D01*
X13600Y-18900D02*
X14500Y-19800D01*
X16400Y-20400D02*
X18800Y-20400D01*
X15800Y-19800D02*
X16400Y-20400D01*
X14500Y-19800D02*
X15800Y-19800D01*
X31000Y-18900D02*
X31300Y-18900D01*
X24300Y-20000D02*
X24500Y-20200D01*
X24300Y-18900D02*
X24300Y-20000D01*
X24500Y-18700D02*
X24300Y-18900D01*
X27100Y-18700D02*
X24500Y-18700D01*
X30100Y-19800D02*
X31000Y-18900D01*
X28400Y-19800D02*
X30100Y-19800D01*
X28100Y-20100D02*
X28400Y-19800D01*
X28100Y-20100D02*
X27500Y-20100D01*
X27500Y-20100D02*
X27300Y-19900D01*
X27300Y-19900D02*
X27300Y-18900D01*
X27300Y-18900D02*
X27100Y-18700D01*
X11800Y-18400D02*
X12800Y-19400D01*
X13700Y-19400D02*
X12800Y-19400D01*
X14400Y-20100D02*
X13700Y-19400D01*
X14400Y-20100D02*
X15700Y-20100D01*
X15700Y-20100D02*
X16300Y-20700D01*
X19600Y-20700D02*
X20100Y-20200D01*
X16300Y-20700D02*
X19600Y-20700D01*
X11300Y-18400D02*
X11800Y-18400D01*
X11800Y-18400D02*
X11300Y-18400D01*
X22300Y-20100D02*
X22300Y-23300D01*
X18800Y-19400D02*
X18100Y-20100D01*
X13300Y-18200D02*
X13300Y-17900D01*
X14600Y-19500D02*
X13300Y-18200D01*
X14600Y-19500D02*
X15900Y-19500D01*
X15900Y-19500D02*
X16500Y-20100D01*
X16500Y-20100D02*
X18100Y-20100D01*
X17800Y-19400D02*
X17100Y-18700D01*
X11800Y-16400D02*
X11300Y-16400D01*
X12800Y-17400D02*
X11800Y-16400D01*
X13500Y-17400D02*
X12800Y-17400D01*
X13800Y-17700D02*
X13500Y-17400D01*
X13800Y-18300D02*
X13800Y-17700D01*
X14700Y-19200D02*
X13800Y-18300D01*
X16000Y-19200D02*
X14700Y-19200D01*
X16500Y-18700D02*
X16000Y-19200D01*
X17100Y-18700D02*
X16500Y-18700D01*
G54D22*
X15300Y-11500D02*
X15300Y-12900D01*
X15300Y-12900D02*
X13300Y-14900D01*
X17300Y-11500D02*
X16500Y-10700D01*
X11300Y-13900D02*
X11300Y-14400D01*
X14500Y-10700D02*
X11300Y-13900D01*
X16500Y-10700D02*
X14500Y-10700D01*
X27300Y-11500D02*
X28100Y-10700D01*
X33300Y-13900D02*
X33300Y-14400D01*
X30100Y-10700D02*
X33300Y-13900D01*
X28100Y-10700D02*
X30100Y-10700D01*
X29300Y-11500D02*
X29300Y-13400D01*
X30800Y-14900D02*
X31300Y-14900D01*
X29300Y-13400D02*
X30800Y-14900D01*
G54D23*
X27800Y-19400D02*
X30000Y-19400D01*
X30800Y-16400D02*
X31300Y-15900D01*
X30800Y-16400D02*
X30800Y-18600D01*
X30000Y-19400D02*
X30800Y-18600D01*
X25800Y-19400D02*
X26800Y-20400D01*
X32800Y-18400D02*
X33300Y-18400D01*
X31800Y-19400D02*
X32800Y-18400D01*
X30900Y-19400D02*
X31800Y-19400D01*
X30200Y-20100D02*
X30900Y-19400D01*
X28500Y-20100D02*
X30200Y-20100D01*
X28200Y-20400D02*
X28500Y-20100D01*
X26800Y-20400D02*
X28200Y-20400D01*
X24800Y-19400D02*
X26100Y-20700D01*
X32800Y-19400D02*
X33300Y-19400D01*
X31800Y-20400D02*
X32800Y-19400D01*
X28600Y-20400D02*
X31800Y-20400D01*
X28300Y-20700D02*
X28600Y-20400D01*
X26100Y-20700D02*
X28300Y-20700D01*
G54D22*
X23300Y-11500D02*
X24100Y-10700D01*
X24100Y-10700D02*
X26000Y-10700D01*
X26000Y-10700D02*
X26300Y-11000D01*
X26300Y-11000D02*
X26300Y-12100D01*
X26300Y-12100D02*
X30300Y-16100D01*
X30300Y-16100D02*
X30300Y-18200D01*
X25300Y-11500D02*
X25300Y-12400D01*
X25300Y-12400D02*
X29300Y-16400D01*
X29300Y-16400D02*
X29300Y-18800D01*
X32100Y-21600D02*
X33300Y-20400D01*
X29500Y-21600D02*
X32100Y-21600D01*
X29300Y-21400D02*
X29500Y-21600D01*
M02*
