M48
INCH,LZ
T1C0.025
T2C0.032
T3C0.040
T4C0.045
T5C0.120
%
G05
T1
X0143Y-0182
X0153Y-0188
X0153Y-0214
X0163Y-0165
X0201Y-0202
X0203Y-0165
X0223Y-0165
X0243Y-0165
X0245Y-0202
X0283Y-0165
X0293Y-0188
X0293Y-0214
X0303Y-0182
T2
X0113Y-0144
X0113Y-0154
X0113Y-0164
X0113Y-0174
X0113Y-0184
X0113Y-0194
X0113Y-0204
X0133Y-0139
X0133Y-0149
X0133Y-0159
X0133Y-0169
X0133Y-0179
X0133Y-0189
X0133Y-0199
X0133Y-0209
X0223Y-0191
X0223Y-0201
X0313Y-0139
X0313Y-0149
X0313Y-0159
X0313Y-0169
X0313Y-0179
X0313Y-0189
X0313Y-0199
X0313Y-0209
X0333Y-0144
X0333Y-0154
X0333Y-0164
X0333Y-0174
X0333Y-0184
X0333Y-0194
X0333Y-0204
T3
X0153Y-0223
X0168Y-0194
X0173Y-0223
X0178Y-0194
X0188Y-0194
X0198Y-0194
X0248Y-0194
X0258Y-0194
X0268Y-0194
X0273Y-0223
X0278Y-0194
X0293Y-0223
T4
X0153Y-0115
X0173Y-0115
X0193Y-0115
X0203Y-0233
X0213Y-0115
X0223Y-0233
X0233Y-0115
X0243Y-0233
X0253Y-0115
X0273Y-0115
X0293Y-0115
T5
X0112Y-0112
X0112Y-0236
X0334Y-0112
X0334Y-0236
T0
M30
