G04 (Genere par PCBnew (20080825c)) le 30/3/2010-05:44:37*
G01*
G70*
G90*
%MOIN*%
G04 Gerber Fmt 3.4, Leading zero omitted, Abs format*
%FSLAX34Y34*%
G04 APERTURE LIST*
%ADD10C,0.008000*%
%ADD11R,0.070000X0.070000*%
%ADD12C,0.070000*%
%ADD13R,0.060000X0.060000*%
%ADD14C,0.060000*%
%ADD15R,0.090000X0.090000*%
%ADD16C,0.090000*%
%ADD17R,0.055000X0.055000*%
%ADD18C,0.055000*%
%ADD19C,0.160000*%
%ADD20C,0.045000*%
%ADD21C,0.060000*%
%ADD22C,0.025000*%
%ADD23C,0.010000*%
%ADD24R,0.025000X0.045000*%
%ADD25R,0.045000X0.025000*%
%ADD26R,0.080000X0.060000*%
%ADD27C,0.012000*%
G04 APERTURE END LIST*
G54D10*
X10000Y-24800D02*
X10000Y-10000D01*
X34600Y-24800D02*
X10000Y-24800D01*
X34600Y-10000D02*
X34600Y-24800D01*
X10000Y-10000D02*
X34600Y-10000D01*
X16550Y-18566D02*
X17050Y-18566D01*
X17050Y-18566D02*
X16661Y-18816D01*
X16661Y-18816D02*
X16661Y-18466D01*
X16550Y-18292D02*
X17050Y-18292D01*
X17050Y-18292D02*
X17050Y-17992D01*
X17050Y-17992D02*
X16994Y-17942D01*
X16994Y-17942D02*
X16883Y-17942D01*
X16883Y-17942D02*
X16827Y-17992D01*
X16827Y-17992D02*
X16827Y-18292D01*
X16827Y-17992D02*
X16716Y-17942D01*
X16716Y-17942D02*
X16605Y-17942D01*
X16605Y-17942D02*
X16550Y-17992D01*
X16550Y-17992D02*
X16550Y-18292D01*
X17550Y-18566D02*
X18050Y-18566D01*
X18050Y-18566D02*
X17661Y-18816D01*
X17661Y-18816D02*
X17661Y-18466D01*
X17550Y-18292D02*
X17938Y-18292D01*
X17938Y-18292D02*
X18050Y-18192D01*
X18050Y-18192D02*
X18050Y-18042D01*
X18050Y-18042D02*
X17938Y-17942D01*
X17938Y-17942D02*
X17550Y-17942D01*
X17827Y-18292D02*
X17827Y-17942D01*
X19050Y-18816D02*
X19050Y-18466D01*
X19050Y-18466D02*
X18994Y-18466D01*
X18994Y-18466D02*
X18827Y-18666D01*
X18827Y-18666D02*
X18827Y-18516D01*
X18827Y-18516D02*
X18772Y-18466D01*
X18772Y-18466D02*
X18605Y-18466D01*
X18605Y-18466D02*
X18550Y-18516D01*
X18550Y-18516D02*
X18550Y-18766D01*
X18550Y-18766D02*
X18605Y-18816D01*
X18550Y-18292D02*
X19050Y-18292D01*
X19050Y-18292D02*
X19050Y-17992D01*
X19050Y-17992D02*
X18994Y-17942D01*
X18994Y-17942D02*
X18883Y-17942D01*
X18883Y-17942D02*
X18827Y-17992D01*
X18827Y-17992D02*
X18827Y-18292D01*
X18827Y-17992D02*
X18716Y-17942D01*
X18716Y-17942D02*
X18605Y-17942D01*
X18605Y-17942D02*
X18550Y-17992D01*
X18550Y-17992D02*
X18550Y-18292D01*
X20050Y-18816D02*
X20050Y-18466D01*
X20050Y-18466D02*
X19994Y-18466D01*
X19994Y-18466D02*
X19827Y-18666D01*
X19827Y-18666D02*
X19827Y-18516D01*
X19827Y-18516D02*
X19772Y-18466D01*
X19772Y-18466D02*
X19605Y-18466D01*
X19605Y-18466D02*
X19550Y-18516D01*
X19550Y-18516D02*
X19550Y-18766D01*
X19550Y-18766D02*
X19605Y-18816D01*
X19550Y-18292D02*
X19938Y-18292D01*
X19938Y-18292D02*
X20050Y-18192D01*
X20050Y-18192D02*
X20050Y-18042D01*
X20050Y-18042D02*
X19938Y-17942D01*
X19938Y-17942D02*
X19550Y-17942D01*
X19827Y-18292D02*
X19827Y-17942D01*
X24550Y-18466D02*
X24550Y-18816D01*
X24550Y-18816D02*
X24716Y-18816D01*
X24716Y-18816D02*
X24772Y-18766D01*
X24772Y-18766D02*
X24772Y-18516D01*
X24772Y-18516D02*
X24827Y-18466D01*
X24827Y-18466D02*
X24994Y-18466D01*
X24994Y-18466D02*
X25050Y-18516D01*
X25050Y-18516D02*
X25050Y-18766D01*
X25050Y-18766D02*
X24994Y-18816D01*
X24550Y-18292D02*
X25050Y-18292D01*
X25050Y-18292D02*
X25050Y-17992D01*
X25050Y-17992D02*
X24994Y-17942D01*
X24994Y-17942D02*
X24883Y-17942D01*
X24883Y-17942D02*
X24827Y-17992D01*
X24827Y-17992D02*
X24827Y-18292D01*
X24827Y-17992D02*
X24716Y-17942D01*
X24716Y-17942D02*
X24605Y-17942D01*
X24605Y-17942D02*
X24550Y-17992D01*
X24550Y-17992D02*
X24550Y-18292D01*
X25550Y-18466D02*
X25550Y-18816D01*
X25550Y-18816D02*
X25716Y-18816D01*
X25716Y-18816D02*
X25772Y-18766D01*
X25772Y-18766D02*
X25772Y-18516D01*
X25772Y-18516D02*
X25827Y-18466D01*
X25827Y-18466D02*
X25994Y-18466D01*
X25994Y-18466D02*
X26050Y-18516D01*
X26050Y-18516D02*
X26050Y-18766D01*
X26050Y-18766D02*
X25994Y-18816D01*
X25550Y-18292D02*
X25938Y-18292D01*
X25938Y-18292D02*
X26050Y-18192D01*
X26050Y-18192D02*
X26050Y-18042D01*
X26050Y-18042D02*
X25938Y-17942D01*
X25938Y-17942D02*
X25550Y-17942D01*
X25827Y-18292D02*
X25827Y-17942D01*
X26550Y-18716D02*
X26550Y-18516D01*
X26550Y-18616D02*
X27050Y-18616D01*
X26994Y-18616D02*
X26883Y-18716D01*
X26550Y-18292D02*
X27050Y-18292D01*
X27050Y-18292D02*
X27050Y-17992D01*
X27050Y-17992D02*
X26994Y-17942D01*
X26994Y-17942D02*
X26883Y-17942D01*
X26883Y-17942D02*
X26827Y-17992D01*
X26827Y-17992D02*
X26827Y-18292D01*
X26827Y-17992D02*
X26716Y-17942D01*
X26716Y-17942D02*
X26605Y-17942D01*
X26605Y-17942D02*
X26550Y-17992D01*
X26550Y-17992D02*
X26550Y-18292D01*
X27550Y-18716D02*
X27550Y-18516D01*
X27550Y-18616D02*
X28050Y-18616D01*
X27994Y-18616D02*
X27883Y-18716D01*
X27550Y-18292D02*
X27938Y-18292D01*
X27938Y-18292D02*
X28050Y-18192D01*
X28050Y-18192D02*
X28050Y-18042D01*
X28050Y-18042D02*
X27938Y-17942D01*
X27938Y-17942D02*
X27550Y-17942D01*
X27827Y-18292D02*
X27827Y-17942D01*
G54D27*
X29588Y-13550D02*
X29588Y-12850D01*
X29588Y-12850D02*
X29150Y-12850D01*
X29588Y-13162D02*
X29338Y-13162D01*
X28850Y-13550D02*
X28913Y-13473D01*
X28913Y-13473D02*
X28913Y-13162D01*
X28913Y-13162D02*
X28850Y-13084D01*
X28850Y-13084D02*
X28538Y-13084D01*
X28538Y-13084D02*
X28475Y-13162D01*
X28475Y-13162D02*
X28475Y-13473D01*
X28475Y-13473D02*
X28538Y-13550D01*
X28538Y-13550D02*
X28850Y-13550D01*
X28238Y-13084D02*
X28238Y-13395D01*
X28238Y-13395D02*
X28113Y-13550D01*
X28113Y-13550D02*
X27925Y-13550D01*
X27925Y-13550D02*
X27800Y-13395D01*
X27800Y-13395D02*
X27800Y-13084D01*
X27563Y-13550D02*
X27563Y-13084D01*
X27563Y-13239D02*
X27438Y-13084D01*
X27438Y-13084D02*
X27250Y-13084D01*
X27250Y-13084D02*
X27125Y-13239D01*
X26825Y-13239D02*
X26513Y-13239D01*
X26213Y-13550D02*
X26213Y-13084D01*
X26213Y-13162D02*
X26150Y-13084D01*
X26150Y-13084D02*
X26025Y-13084D01*
X26025Y-13084D02*
X25963Y-13162D01*
X25963Y-13162D02*
X25963Y-13550D01*
X25963Y-13162D02*
X25900Y-13084D01*
X25900Y-13084D02*
X25775Y-13084D01*
X25775Y-13084D02*
X25713Y-13162D01*
X25713Y-13162D02*
X25713Y-13550D01*
X25475Y-13550D02*
X25538Y-13473D01*
X25538Y-13473D02*
X25538Y-13162D01*
X25538Y-13162D02*
X25475Y-13084D01*
X25475Y-13084D02*
X25163Y-13084D01*
X25163Y-13084D02*
X25100Y-13162D01*
X25100Y-13162D02*
X25100Y-13473D01*
X25100Y-13473D02*
X25163Y-13550D01*
X25163Y-13550D02*
X25475Y-13550D01*
X24488Y-13473D02*
X24550Y-13550D01*
X24550Y-13550D02*
X24738Y-13550D01*
X24738Y-13550D02*
X24800Y-13473D01*
X24800Y-13473D02*
X24800Y-12850D01*
X24800Y-13084D02*
X24613Y-13084D01*
X24125Y-13550D02*
X24188Y-13473D01*
X24188Y-13473D02*
X24188Y-13162D01*
X24188Y-13162D02*
X24125Y-13084D01*
X24125Y-13084D02*
X23813Y-13084D01*
X23813Y-13084D02*
X23750Y-13162D01*
X23750Y-13162D02*
X23750Y-13473D01*
X23750Y-13473D02*
X23813Y-13550D01*
X23813Y-13550D02*
X24125Y-13550D01*
X23513Y-13550D02*
X23513Y-13084D01*
X23513Y-13239D02*
X23388Y-13084D01*
X23388Y-13084D02*
X23200Y-13084D01*
X23200Y-13084D02*
X23075Y-13239D01*
X21725Y-12850D02*
X21725Y-13550D01*
X21725Y-13550D02*
X22100Y-13550D01*
X22100Y-13550D02*
X22163Y-13473D01*
X22163Y-13473D02*
X22163Y-13162D01*
X22163Y-13162D02*
X22100Y-13084D01*
X22100Y-13084D02*
X21725Y-13084D01*
X21488Y-13550D02*
X21488Y-13084D01*
X21488Y-13239D02*
X21363Y-13084D01*
X21363Y-13084D02*
X21175Y-13084D01*
X21175Y-13084D02*
X21050Y-13239D01*
X20625Y-12850D02*
X20625Y-12928D01*
X20625Y-13162D02*
X20625Y-13473D01*
X20625Y-13473D02*
X20563Y-13550D01*
X20563Y-13550D02*
X20500Y-13550D01*
X20138Y-13084D02*
X20138Y-13317D01*
X20138Y-13317D02*
X19950Y-13550D01*
X19950Y-13550D02*
X19763Y-13317D01*
X19763Y-13317D02*
X19763Y-13084D01*
X19463Y-13317D02*
X19025Y-13317D01*
X19025Y-13317D02*
X19025Y-13162D01*
X19025Y-13162D02*
X19088Y-13084D01*
X19088Y-13084D02*
X19400Y-13084D01*
X19400Y-13084D02*
X19463Y-13162D01*
X19463Y-13162D02*
X19463Y-13473D01*
X19463Y-13473D02*
X19400Y-13550D01*
X19400Y-13550D02*
X19088Y-13550D01*
X19088Y-13550D02*
X19025Y-13473D01*
X18788Y-13550D02*
X18788Y-13084D01*
X18788Y-13239D02*
X18663Y-13084D01*
X18663Y-13084D02*
X18475Y-13084D01*
X18475Y-13084D02*
X18350Y-13239D01*
X17438Y-13084D02*
X17438Y-13317D01*
X17438Y-13317D02*
X17250Y-13550D01*
X17250Y-13550D02*
X17063Y-13317D01*
X17063Y-13317D02*
X17063Y-13084D01*
X16763Y-13550D02*
X16325Y-12850D01*
X16763Y-13473D02*
X16763Y-12928D01*
X16763Y-12928D02*
X16700Y-12850D01*
X16700Y-12850D02*
X16388Y-12850D01*
X16388Y-12850D02*
X16325Y-12928D01*
X16325Y-12928D02*
X16325Y-13473D01*
X16325Y-13473D02*
X16388Y-13550D01*
X16388Y-13550D02*
X16700Y-13550D01*
X16700Y-13550D02*
X16763Y-13473D01*
X15900Y-13550D02*
X15900Y-13473D01*
X14975Y-12928D02*
X15038Y-12850D01*
X15038Y-12850D02*
X15350Y-12850D01*
X15350Y-12850D02*
X15413Y-12928D01*
X15413Y-12928D02*
X15413Y-13473D01*
X15413Y-13473D02*
X15350Y-13550D01*
X15350Y-13550D02*
X15038Y-13550D01*
X15038Y-13550D02*
X14975Y-13473D01*
X14975Y-13473D02*
X14975Y-13239D01*
X14975Y-13239D02*
X15038Y-13162D01*
X15038Y-13162D02*
X15350Y-13162D01*
X15350Y-13162D02*
X15413Y-13239D01*
X20525Y-15350D02*
X20087Y-15350D01*
X20087Y-15350D02*
X20087Y-15428D01*
X20087Y-15428D02*
X20337Y-15662D01*
X20337Y-15662D02*
X20150Y-15662D01*
X20150Y-15662D02*
X20087Y-15739D01*
X20087Y-15739D02*
X20087Y-15973D01*
X20087Y-15973D02*
X20150Y-16050D01*
X20150Y-16050D02*
X20462Y-16050D01*
X20462Y-16050D02*
X20525Y-15973D01*
X19787Y-16050D02*
X19537Y-15350D01*
X18737Y-16050D02*
X19175Y-16050D01*
X19175Y-16050D02*
X19175Y-15817D01*
X19175Y-15817D02*
X19112Y-15739D01*
X19112Y-15739D02*
X18800Y-15739D01*
X18800Y-15739D02*
X18737Y-15662D01*
X18737Y-15662D02*
X18737Y-15428D01*
X18737Y-15428D02*
X18800Y-15350D01*
X18800Y-15350D02*
X19112Y-15350D01*
X19112Y-15350D02*
X19175Y-15428D01*
X18437Y-16050D02*
X18125Y-16050D01*
X18125Y-16050D02*
X18062Y-15973D01*
X18062Y-15973D02*
X18062Y-15428D01*
X18062Y-15428D02*
X18125Y-15350D01*
X18125Y-15350D02*
X18437Y-15350D01*
X18437Y-15350D02*
X18500Y-15428D01*
X18500Y-15428D02*
X18500Y-15662D01*
X18500Y-15662D02*
X18437Y-15739D01*
X18437Y-15739D02*
X18125Y-15739D01*
X18125Y-15739D02*
X18062Y-15662D01*
X17762Y-16050D02*
X17512Y-15350D01*
X17025Y-16050D02*
X16775Y-16050D01*
X16900Y-16050D02*
X16900Y-15350D01*
X16900Y-15428D02*
X17025Y-15584D01*
X16475Y-16050D02*
X16037Y-15350D01*
X16475Y-15973D02*
X16475Y-15428D01*
X16475Y-15428D02*
X16412Y-15350D01*
X16412Y-15350D02*
X16100Y-15350D01*
X16100Y-15350D02*
X16037Y-15428D01*
X16037Y-15428D02*
X16037Y-15973D01*
X16037Y-15973D02*
X16100Y-16050D01*
X16100Y-16050D02*
X16412Y-16050D01*
X16412Y-16050D02*
X16475Y-15973D01*
X30213Y-15973D02*
X30150Y-16050D01*
X30150Y-16050D02*
X29838Y-16050D01*
X29838Y-16050D02*
X29775Y-15973D01*
X29775Y-15973D02*
X29775Y-15739D01*
X29775Y-15739D02*
X29838Y-15662D01*
X29838Y-15662D02*
X30150Y-15662D01*
X30150Y-15662D02*
X30213Y-15584D01*
X30213Y-15584D02*
X30213Y-15428D01*
X30213Y-15428D02*
X30150Y-15350D01*
X30150Y-15350D02*
X29838Y-15350D01*
X29838Y-15350D02*
X29775Y-15428D01*
X29475Y-16050D02*
X29538Y-15973D01*
X29538Y-15973D02*
X29538Y-15662D01*
X29538Y-15662D02*
X29475Y-15584D01*
X29475Y-15584D02*
X29163Y-15584D01*
X29163Y-15584D02*
X29100Y-15662D01*
X29100Y-15662D02*
X29100Y-15973D01*
X29100Y-15973D02*
X29163Y-16050D01*
X29163Y-16050D02*
X29475Y-16050D01*
X28800Y-16050D02*
X28863Y-15973D01*
X28863Y-15973D02*
X28863Y-15662D01*
X28863Y-15662D02*
X28800Y-15584D01*
X28800Y-15584D02*
X28488Y-15584D01*
X28488Y-15584D02*
X28425Y-15662D01*
X28425Y-15662D02*
X28425Y-15973D01*
X28425Y-15973D02*
X28488Y-16050D01*
X28488Y-16050D02*
X28800Y-16050D01*
X28125Y-15739D02*
X27813Y-15739D01*
X27513Y-16050D02*
X27513Y-15350D01*
X27075Y-16050D02*
X27075Y-15350D01*
X27513Y-15739D02*
X27075Y-15739D01*
X26838Y-15584D02*
X26838Y-15895D01*
X26838Y-15895D02*
X26713Y-16050D01*
X26713Y-16050D02*
X26525Y-16050D01*
X26525Y-16050D02*
X26400Y-15895D01*
X26400Y-15584D02*
X26400Y-16205D01*
X26400Y-16205D02*
X26463Y-16283D01*
X26463Y-16283D02*
X26775Y-16283D01*
X26775Y-16283D02*
X26838Y-16205D01*
X26163Y-15584D02*
X26163Y-15895D01*
X26163Y-15895D02*
X26038Y-16050D01*
X26038Y-16050D02*
X25850Y-16050D01*
X25850Y-16050D02*
X25725Y-15895D01*
X25725Y-15895D02*
X25725Y-15584D01*
X25488Y-16050D02*
X25488Y-15584D01*
X25488Y-15662D02*
X25425Y-15584D01*
X25425Y-15584D02*
X25175Y-15584D01*
X25175Y-15584D02*
X25113Y-15662D01*
X25113Y-15662D02*
X25113Y-16050D01*
X24138Y-15350D02*
X23888Y-15739D01*
X23888Y-15739D02*
X23638Y-15350D01*
X23888Y-15739D02*
X23888Y-16050D01*
X23400Y-16050D02*
X23463Y-15973D01*
X23463Y-15973D02*
X23463Y-15662D01*
X23463Y-15662D02*
X23400Y-15584D01*
X23400Y-15584D02*
X23088Y-15584D01*
X23088Y-15584D02*
X23025Y-15662D01*
X23025Y-15662D02*
X23025Y-15973D01*
X23025Y-15973D02*
X23088Y-16050D01*
X23088Y-16050D02*
X23400Y-16050D01*
X22725Y-16050D02*
X22788Y-15973D01*
X22788Y-15973D02*
X22788Y-15662D01*
X22788Y-15662D02*
X22725Y-15584D01*
X22725Y-15584D02*
X22413Y-15584D01*
X22413Y-15584D02*
X22350Y-15662D01*
X22350Y-15662D02*
X22350Y-15973D01*
X22350Y-15973D02*
X22413Y-16050D01*
X22413Y-16050D02*
X22725Y-16050D01*
M02*
