M48
;DRILL file {PCBnew (2010-04-21 BZR 23xx)-stable} date Tue 08 Nov 2011 12:37:03 PM PST
;FORMAT={-.-/ absolute / inch / decimal}
R,T
VER,1
FMAT,2
INCH,TZ
TCST,OFF
ICI,OFF
ATC,ON
T1C0.032
T2C0.035
T3C0.040
T4C0.045
T5C0.120
%
M47
G05
M72
T1
X1.110Y-1.770
X1.110Y-1.870
X1.110Y-1.970
X1.110Y-2.070
X1.110Y-2.170
X1.110Y-2.270
X1.110Y-2.370
X1.310Y-1.720
X1.310Y-1.820
X1.310Y-1.920
X1.310Y-2.020
X1.310Y-2.120
X1.310Y-2.220
X1.310Y-2.320
X1.310Y-2.420
X3.090Y-1.720
X3.090Y-1.820
X3.090Y-1.920
X3.090Y-2.020
X3.090Y-2.120
X3.090Y-2.220
X3.090Y-2.320
X3.090Y-2.420
X3.290Y-1.770
X3.290Y-1.870
X3.290Y-1.970
X3.290Y-2.070
X3.290Y-2.170
X3.290Y-2.270
X3.290Y-2.370
T2
X1.550Y-2.220
X1.620Y-1.850
X1.620Y-2.230
X1.780Y-2.150
X1.840Y-1.390
X1.870Y-1.850
X1.870Y-2.230
X1.940Y-2.690
X2.060Y-2.300
X2.130Y-2.430
X2.200Y-1.550
X2.290Y-2.680
X2.300Y-2.500
X2.320Y-2.380
X2.390Y-2.690
X2.530Y-2.690
X2.540Y-1.850
X2.540Y-2.230
X2.550Y-1.390
X2.660Y-2.140
X2.730Y-2.230
X2.790Y-1.850
X2.810Y-2.240
X2.890Y-2.230
T3
X1.590Y-2.040
X1.690Y-2.040
X1.790Y-2.040
X1.890Y-2.040
X2.100Y-2.040
X2.300Y-2.040
X2.510Y-2.040
X2.610Y-2.040
X2.710Y-2.040
X2.810Y-2.040
T4
X1.590Y-1.150
X1.590Y-2.930
X1.790Y-1.150
X1.790Y-2.930
X1.990Y-2.930
X2.190Y-2.930
X2.390Y-2.930
X2.590Y-1.150
X2.590Y-2.930
X2.790Y-1.150
X2.790Y-2.930
T5
X1.150Y-1.150
X1.150Y-2.930
X3.250Y-1.150
X3.250Y-2.930
T0
M30
