G04 (Genere par PCBnew (20080825c)) le 30/3/2010-05:44:37*
G01*
G70*
G90*
%MOIN*%
G04 Gerber Fmt 3.4, Leading zero omitted, Abs format*
%FSLAX34Y34*%
G04 APERTURE LIST*
%ADD10C,0.008000*%
%ADD11R,0.070000X0.070000*%
%ADD12C,0.070000*%
%ADD13R,0.060000X0.060000*%
%ADD14C,0.060000*%
%ADD15R,0.090000X0.090000*%
%ADD16C,0.090000*%
%ADD17R,0.055000X0.055000*%
%ADD18C,0.055000*%
%ADD19C,0.160000*%
%ADD20C,0.045000*%
%ADD21C,0.060000*%
%ADD22C,0.025000*%
%ADD23C,0.010000*%
%ADD24R,0.025000X0.045000*%
%ADD25R,0.045000X0.025000*%
%ADD26R,0.080000X0.060000*%
G04 APERTURE END LIST*
G54D10*
X10000Y-24800D02*
X10000Y-10000D01*
X34600Y-24800D02*
X10000Y-24800D01*
X34600Y-10000D02*
X34600Y-24800D01*
X10000Y-10000D02*
X34600Y-10000D01*
G54D11*
X17300Y-22300D03*
G54D12*
X15300Y-22300D03*
G54D11*
X29300Y-22300D03*
G54D12*
X27300Y-22300D03*
G54D13*
X13300Y-20900D03*
G54D14*
X11300Y-20400D03*
X13300Y-19900D03*
X11300Y-19400D03*
X13300Y-18900D03*
X11300Y-18400D03*
X13300Y-17900D03*
X11300Y-17400D03*
X13300Y-16900D03*
X11300Y-16400D03*
X13300Y-15900D03*
X11300Y-15400D03*
X13300Y-14900D03*
X11300Y-14400D03*
X13300Y-13900D03*
G54D13*
X31300Y-13900D03*
G54D14*
X33300Y-14400D03*
X31300Y-14900D03*
X33300Y-15400D03*
X31300Y-15900D03*
X33300Y-16400D03*
X31300Y-16900D03*
X33300Y-17400D03*
X31300Y-17900D03*
X33300Y-18400D03*
X31300Y-18900D03*
X33300Y-19400D03*
X31300Y-19900D03*
X33300Y-20400D03*
X31300Y-20900D03*
G54D15*
X15300Y-11500D03*
G54D16*
X17300Y-11500D03*
G54D15*
X19300Y-11500D03*
G54D16*
X21300Y-11500D03*
G54D15*
X23300Y-11500D03*
G54D16*
X25300Y-11500D03*
G54D15*
X27300Y-11500D03*
G54D16*
X29300Y-11500D03*
G54D15*
X24300Y-23300D03*
G54D16*
X22300Y-23300D03*
X20300Y-23300D03*
G54D17*
X22300Y-20100D03*
G54D18*
X22300Y-19100D03*
G54D24*
X28000Y-13600D03*
X28600Y-13600D03*
X24000Y-13600D03*
X24600Y-13600D03*
X20000Y-13600D03*
X20600Y-13600D03*
X16000Y-13600D03*
X16600Y-13600D03*
G54D25*
X30300Y-17700D03*
X30300Y-17100D03*
X22300Y-17100D03*
X22300Y-17700D03*
X14300Y-17700D03*
X14300Y-17100D03*
G54D13*
X19800Y-19400D03*
G54D14*
X18800Y-19400D03*
X17800Y-19400D03*
X16800Y-19400D03*
G54D13*
X27800Y-19400D03*
G54D14*
X26800Y-19400D03*
X25800Y-19400D03*
X24800Y-19400D03*
G54D26*
X26800Y-15700D03*
X26800Y-14400D03*
X27800Y-14400D03*
X27800Y-15700D03*
X18800Y-15700D03*
X18800Y-14400D03*
X19800Y-14400D03*
X19800Y-15700D03*
X29800Y-15700D03*
X29800Y-14400D03*
X28800Y-14400D03*
X28800Y-15700D03*
X21800Y-15700D03*
X21800Y-14400D03*
X20800Y-14400D03*
X20800Y-15700D03*
X22800Y-15700D03*
X22800Y-14400D03*
X23800Y-14400D03*
X23800Y-15700D03*
X14800Y-15700D03*
X14800Y-14400D03*
X15800Y-14400D03*
X15800Y-15700D03*
X25800Y-15700D03*
X25800Y-14400D03*
X24800Y-14400D03*
X24800Y-15700D03*
X17800Y-15700D03*
X17800Y-14400D03*
X16800Y-14400D03*
X16800Y-15700D03*
X27300Y-16750D03*
X27300Y-18050D03*
X29300Y-18050D03*
X29300Y-16750D03*
X23300Y-16750D03*
X23300Y-18050D03*
X25300Y-18050D03*
X25300Y-16750D03*
X19200Y-16750D03*
X19200Y-18050D03*
X21300Y-18050D03*
X21300Y-16750D03*
X15300Y-16750D03*
X15300Y-18050D03*
X17300Y-18050D03*
X17300Y-16750D03*
G54D19*
X11200Y-11200D03*
X33400Y-11200D03*
X33400Y-23600D03*
X11200Y-23600D03*
G54D25*
X28300Y-17700D03*
X28300Y-17100D03*
X24300Y-17700D03*
X24300Y-17100D03*
X20300Y-17700D03*
X20300Y-17100D03*
X16300Y-17700D03*
X16300Y-17100D03*
G54D20*
X24300Y-16500D03*
X20300Y-16500D03*
X28300Y-16500D03*
X16300Y-16500D03*
X22300Y-16500D03*
X15300Y-21400D03*
X15300Y-18800D03*
X14300Y-18200D03*
X24500Y-20200D03*
X20100Y-20200D03*
X30300Y-18200D03*
X29300Y-18800D03*
X29300Y-21400D03*
G54D21*
X11300Y-19400D02*
X11800Y-19400D01*
X11800Y-19400D02*
X12200Y-19800D01*
X12200Y-19800D02*
X12200Y-21200D01*
X12200Y-21200D02*
X12800Y-21800D01*
X16300Y-23300D02*
X17300Y-22300D01*
X16300Y-23300D02*
X14300Y-23300D01*
X14300Y-23300D02*
X12800Y-21800D01*
X24300Y-23300D02*
X23300Y-24300D01*
X17900Y-22300D02*
X17300Y-22300D01*
X19900Y-24300D02*
X17900Y-22300D01*
X23300Y-24300D02*
X19900Y-24300D01*
X23800Y-15700D02*
X23900Y-15700D01*
G54D22*
X24300Y-15700D02*
X24300Y-16500D01*
X20300Y-15700D02*
X20300Y-16500D01*
X28300Y-15700D02*
X28300Y-16500D01*
X16300Y-16500D02*
X16300Y-15700D01*
X15800Y-15700D02*
X16300Y-15700D01*
X16300Y-15700D02*
X16800Y-15700D01*
X19800Y-15700D02*
X20300Y-15700D01*
X20300Y-15700D02*
X20800Y-15700D01*
X23800Y-15700D02*
X24300Y-15700D01*
X24300Y-15700D02*
X24800Y-15700D01*
X27800Y-15700D02*
X28300Y-15700D01*
X28300Y-15700D02*
X28800Y-15700D01*
G54D21*
X27300Y-22300D02*
X27300Y-22200D01*
X32800Y-17400D02*
X33300Y-17400D01*
X32400Y-17800D02*
X32800Y-17400D01*
X32400Y-17800D02*
X32400Y-20900D01*
X32400Y-20900D02*
X32400Y-21200D01*
X31800Y-21800D02*
X32400Y-21200D01*
X27300Y-22300D02*
X21300Y-22300D01*
X21300Y-22300D02*
X20300Y-23300D01*
X21800Y-15700D02*
X21900Y-15700D01*
G54D22*
X14800Y-15700D02*
X14800Y-15600D01*
X17800Y-15600D02*
X17800Y-15700D01*
X17300Y-15100D02*
X17800Y-15600D01*
X15300Y-15100D02*
X17300Y-15100D01*
X14800Y-15600D02*
X15300Y-15100D01*
X18800Y-15700D02*
X18800Y-15600D01*
X21800Y-15600D02*
X21800Y-15700D01*
X21300Y-15100D02*
X21800Y-15600D01*
X19300Y-15100D02*
X21300Y-15100D01*
X18800Y-15600D02*
X19300Y-15100D01*
X22800Y-15700D02*
X22800Y-15600D01*
X23300Y-15100D02*
X25300Y-15100D01*
X22800Y-15600D02*
X23300Y-15100D01*
X25800Y-15600D02*
X25800Y-15700D01*
X25800Y-15600D02*
X25300Y-15100D01*
X26800Y-15700D02*
X26800Y-15600D01*
X29800Y-15600D02*
X29800Y-15700D01*
X29300Y-15100D02*
X29800Y-15600D01*
X27300Y-15100D02*
X29300Y-15100D01*
X26800Y-15600D02*
X27300Y-15100D01*
X17800Y-15700D02*
X18800Y-15700D01*
X21800Y-15700D02*
X22300Y-15700D01*
X22300Y-15700D02*
X22800Y-15700D01*
X25800Y-15700D02*
X26800Y-15700D01*
G54D23*
X30300Y-17100D02*
X30300Y-16200D01*
X30300Y-16200D02*
X29800Y-15700D01*
X14300Y-17100D02*
X14300Y-16200D01*
X14300Y-16200D02*
X14800Y-15700D01*
X13300Y-13900D02*
X13800Y-13900D01*
X14000Y-14900D02*
X14800Y-15700D01*
X14000Y-14100D02*
X14000Y-14900D01*
X13800Y-13900D02*
X14000Y-14100D01*
X31300Y-13900D02*
X30800Y-13900D01*
X30600Y-14900D02*
X29800Y-15700D01*
X30600Y-14100D02*
X30600Y-14900D01*
X30800Y-13900D02*
X30600Y-14100D01*
X32400Y-20900D02*
X31300Y-20900D01*
G54D21*
X27300Y-22300D02*
X28300Y-23300D01*
X30300Y-23300D02*
X31800Y-21800D01*
X28300Y-23300D02*
X30300Y-23300D01*
G54D22*
X22300Y-15700D02*
X22300Y-16500D01*
G54D23*
X22300Y-17100D02*
X22300Y-16500D01*
G54D22*
X19300Y-11500D02*
X19300Y-12900D01*
X19300Y-12900D02*
X20000Y-13600D01*
X18800Y-14400D02*
X19800Y-14400D01*
X19800Y-14400D02*
X20000Y-14200D01*
X20000Y-14200D02*
X20000Y-13600D01*
X15300Y-18800D02*
X15300Y-21400D01*
X21300Y-11500D02*
X21300Y-12900D01*
X21300Y-12900D02*
X20600Y-13600D01*
X21800Y-14400D02*
X20800Y-14400D01*
X20800Y-14400D02*
X20600Y-14200D01*
X20600Y-14200D02*
X20600Y-13600D01*
X13800Y-19900D02*
X13300Y-19900D01*
X14300Y-19400D02*
X13800Y-19900D01*
X14300Y-18200D02*
X14300Y-19400D01*
G54D23*
X20300Y-17700D02*
X20300Y-18900D01*
X20300Y-18900D02*
X19800Y-19400D01*
X33300Y-16400D02*
X32800Y-16400D01*
X32800Y-16400D02*
X31300Y-17900D01*
X31300Y-17900D02*
X31300Y-18900D01*
X30300Y-17700D02*
X31100Y-17700D01*
X31100Y-17700D02*
X31300Y-17900D01*
X13300Y-15900D02*
X13300Y-16900D01*
X24400Y-20100D02*
X22300Y-20100D01*
X24500Y-20200D02*
X24400Y-20100D01*
X14300Y-17700D02*
X13800Y-17700D01*
X13800Y-17700D02*
X13300Y-17200D01*
X13300Y-17200D02*
X13300Y-16900D01*
X20200Y-20100D02*
X22300Y-20100D01*
X20200Y-20100D02*
X20100Y-20200D01*
X11300Y-18400D02*
X11800Y-18400D01*
X11800Y-18400D02*
X13300Y-16900D01*
X18800Y-19400D02*
X18800Y-18450D01*
X21300Y-18050D02*
X21300Y-18000D01*
X21300Y-18000D02*
X20700Y-17400D01*
X19200Y-18000D02*
X19200Y-18050D01*
X19800Y-17400D02*
X19200Y-18000D01*
X20700Y-17400D02*
X19800Y-17400D01*
X18800Y-18450D02*
X19200Y-18050D01*
X16300Y-17700D02*
X16300Y-18200D01*
X17100Y-18700D02*
X17800Y-19400D01*
X16800Y-18700D02*
X17100Y-18700D01*
X16300Y-18200D02*
X16800Y-18700D01*
X16800Y-19400D02*
X16650Y-19400D01*
X13600Y-15400D02*
X11300Y-15400D01*
X13800Y-15600D02*
X13600Y-15400D01*
X13800Y-17300D02*
X13800Y-15600D01*
X13900Y-17400D02*
X13800Y-17300D01*
X14700Y-17400D02*
X13900Y-17400D01*
X15300Y-18000D02*
X14700Y-17400D01*
X15900Y-17400D02*
X15300Y-18000D01*
X16700Y-17400D02*
X15900Y-17400D01*
X17300Y-18000D02*
X16700Y-17400D01*
X17300Y-18050D02*
X17300Y-18000D01*
X16650Y-19400D02*
X15300Y-18050D01*
X15300Y-18050D02*
X15300Y-18000D01*
G54D22*
X15300Y-11500D02*
X15300Y-12900D01*
X15300Y-12900D02*
X16000Y-13600D01*
X14800Y-14400D02*
X15800Y-14400D01*
X15800Y-14400D02*
X16000Y-14200D01*
X16000Y-14200D02*
X16000Y-13600D01*
X17300Y-11500D02*
X17300Y-12900D01*
X17300Y-12900D02*
X16600Y-13600D01*
X17800Y-14400D02*
X16800Y-14400D01*
X16800Y-14400D02*
X16600Y-14200D01*
X16600Y-14200D02*
X16600Y-13600D01*
X27300Y-11500D02*
X27300Y-12900D01*
X27300Y-12900D02*
X28000Y-13600D01*
X26800Y-14400D02*
X27800Y-14400D01*
X27800Y-14400D02*
X28000Y-14200D01*
X28000Y-14200D02*
X28000Y-13600D01*
X29300Y-11500D02*
X29300Y-12900D01*
X29300Y-12900D02*
X28600Y-13600D01*
X29800Y-14400D02*
X28800Y-14400D01*
X28800Y-14400D02*
X28600Y-14200D01*
X28600Y-14200D02*
X28600Y-13600D01*
G54D23*
X28300Y-17700D02*
X28300Y-18900D01*
X28300Y-18900D02*
X27800Y-19400D01*
X26800Y-19400D02*
X26800Y-18550D01*
X30800Y-17400D02*
X31300Y-16900D01*
X29900Y-17400D02*
X30800Y-17400D01*
X29300Y-18000D02*
X29900Y-17400D01*
X28700Y-17400D02*
X29300Y-18000D01*
X27900Y-17400D02*
X28700Y-17400D01*
X27300Y-18000D02*
X27900Y-17400D01*
X27300Y-18050D02*
X27300Y-18000D01*
X26800Y-18550D02*
X27300Y-18050D01*
X29300Y-18050D02*
X29300Y-18000D01*
X25800Y-19400D02*
X25100Y-18700D01*
X24800Y-18700D02*
X25100Y-18700D01*
X24500Y-18400D02*
X24800Y-18700D01*
X24300Y-18200D02*
X24300Y-17700D01*
X24300Y-18200D02*
X24500Y-18400D01*
X24800Y-19400D02*
X24650Y-19400D01*
X24650Y-19400D02*
X23925Y-18675D01*
X24600Y-17400D02*
X23900Y-17400D01*
X25250Y-18050D02*
X24600Y-17400D01*
X25300Y-18050D02*
X25250Y-18050D01*
X23300Y-18000D02*
X23300Y-18050D01*
X23900Y-17400D02*
X23300Y-18000D01*
X23925Y-18675D02*
X23300Y-18050D01*
G54D22*
X23300Y-12900D02*
X24000Y-13600D01*
X22800Y-14400D02*
X23800Y-14400D01*
X23800Y-14400D02*
X24000Y-14200D01*
X24000Y-14200D02*
X24000Y-13600D01*
X30800Y-19900D02*
X31300Y-19900D01*
X30300Y-19400D02*
X30800Y-19900D01*
X30300Y-18200D02*
X30300Y-19400D01*
X23300Y-11500D02*
X23300Y-12900D01*
X25300Y-11500D02*
X25300Y-12900D01*
X25300Y-12900D02*
X24600Y-13600D01*
X25800Y-14400D02*
X24800Y-14400D01*
X24800Y-14400D02*
X24600Y-14200D01*
X24600Y-14200D02*
X24600Y-13600D01*
X29300Y-18800D02*
X29300Y-21400D01*
G54D23*
X22300Y-19100D02*
X22300Y-17700D01*
X28950Y-17100D02*
X29300Y-16750D01*
X27650Y-17100D02*
X27300Y-16750D01*
X28300Y-17100D02*
X28950Y-17100D01*
X28300Y-17100D02*
X27650Y-17100D01*
X23650Y-17100D02*
X23300Y-16750D01*
X24950Y-17100D02*
X25300Y-16750D01*
X24300Y-17100D02*
X23650Y-17100D01*
X24300Y-17100D02*
X24950Y-17100D01*
X19550Y-17100D02*
X19200Y-16750D01*
X20950Y-17100D02*
X21300Y-16750D01*
X20300Y-17100D02*
X19550Y-17100D01*
X20300Y-17100D02*
X20950Y-17100D01*
X15650Y-17100D02*
X15300Y-16750D01*
X16950Y-17100D02*
X17300Y-16750D01*
X16300Y-17100D02*
X15650Y-17100D01*
X16300Y-17100D02*
X16950Y-17100D01*
M02*
